<svg xmlns="http://www.w3.org/2000/svg" xmlns:xlink="http://www.w3.org/1999/xlink" width="1200" zoomAndPan="magnify" viewBox="0 0 900 299.999988" height="400" preserveAspectRatio="xMidYMid meet" version="1.0"><defs><g/><clipPath id="90616f602e"><path d="M 30 22.476562 L 285.042969 22.476562 L 285.042969 277.523438 L 30 277.523438 Z M 30 22.476562 " clip-rule="nonzero"/></clipPath><clipPath id="e8c7931c67"><path d="M 157.523438 22.476562 C 87.09375 22.476562 30 79.570312 30 150 C 30 220.429688 87.09375 277.523438 157.523438 277.523438 C 227.949219 277.523438 285.042969 220.429688 285.042969 150 C 285.042969 79.570312 227.949219 22.476562 157.523438 22.476562 " clip-rule="nonzero"/></clipPath><clipPath id="1946f9c15f"><path d="M 208 103 L 257.730469 103 L 257.730469 197 L 208 197 Z M 208 103 " clip-rule="nonzero"/></clipPath><clipPath id="c6525b1752"><path d="M 126 80.976562 L 187 80.976562 L 187 218.84375 L 126 218.84375 Z M 126 80.976562 " clip-rule="nonzero"/></clipPath></defs><g clip-path="url(#90616f602e)"><g clip-path="url(#e8c7931c67)"><path fill="#000000" d="M 30 22.476562 L 285.042969 22.476562 L 285.042969 277.523438 L 30 277.523438 Z M 30 22.476562 " fill-opacity="1" fill-rule="nonzero"/></g></g><g clip-path="url(#1946f9c15f)"><path fill="#ffffff" d="M 215.320312 104.722656 L 210.710938 108.550781 C 209.175781 110.082031 208.40625 113.144531 209.945312 114.679688 L 239.140625 149.910156 L 209.945312 185.144531 C 208.40625 186.675781 208.40625 189.738281 210.710938 191.273438 L 215.320312 195.101562 C 216.859375 196.632812 219.933594 196.632812 221.46875 194.335938 L 256.808594 152.207031 C 257.578125 150.675781 257.578125 149.144531 256.808594 147.613281 L 221.46875 105.488281 C 219.933594 103.953125 217.625 103.1875 215.320312 104.722656 Z M 215.320312 104.722656 " fill-opacity="1" fill-rule="nonzero"/></g><path fill="#ffffff" d="M 100.074219 195.101562 L 104.6875 191.273438 C 106.222656 189.738281 106.992188 186.675781 105.453125 185.144531 L 75.492188 149.910156 L 104.6875 114.679688 C 106.222656 113.144531 106.222656 110.082031 103.917969 108.550781 L 100.074219 104.722656 C 97.769531 103.1875 95.464844 103.953125 93.929688 105.488281 L 58.585938 147.613281 C 57.820312 149.144531 57.820312 150.675781 58.585938 152.207031 L 93.929688 194.335938 C 95.464844 195.867188 97.769531 196.632812 100.074219 195.101562 Z M 100.074219 195.101562 " fill-opacity="1" fill-rule="nonzero"/><g clip-path="url(#c6525b1752)"><path fill="#ffffff" d="M 169.992188 84.804688 L 126.964844 213.484375 C 126.199219 216.546875 128.503906 218.84375 130.808594 218.84375 L 137.722656 218.84375 C 140.027344 218.84375 142.332031 217.3125 143.101562 215.015625 L 186.125 86.339844 C 186.894531 83.273438 184.589844 80.976562 182.285156 80.976562 L 175.371094 80.976562 C 173.066406 80.976562 170.761719 82.507812 169.992188 84.804688 Z M 169.992188 84.804688 " fill-opacity="1" fill-rule="nonzero"/></g><g fill="#000000" fill-opacity="1"><g transform="translate(307.725765, 177.318092)"><g><path d="M 59.296875 -23.765625 L 21.203125 -23.765625 C 21.203125 -20.078125 22.394531 -17.34375 24.78125 -15.5625 C 27.175781 -13.789062 29.769531 -12.90625 32.5625 -12.90625 C 35.5 -12.90625 37.820312 -13.296875 39.53125 -14.078125 C 41.238281 -14.867188 43.1875 -16.425781 45.375 -18.75 L 58.484375 -12.1875 C 53.023438 -3.039062 43.941406 1.53125 31.234375 1.53125 C 23.316406 1.53125 16.523438 -1.179688 10.859375 -6.609375 C 5.191406 -12.035156 2.359375 -18.570312 2.359375 -26.21875 C 2.359375 -33.863281 5.191406 -40.414062 10.859375 -45.875 C 16.523438 -51.34375 23.316406 -54.078125 31.234375 -54.078125 C 39.566406 -54.078125 46.34375 -51.671875 51.5625 -46.859375 C 56.789062 -42.046875 59.40625 -35.164062 59.40625 -26.21875 C 59.40625 -24.988281 59.367188 -24.171875 59.296875 -23.765625 Z M 21.71875 -33.796875 L 41.6875 -33.796875 C 41.28125 -36.523438 40.203125 -38.625 38.453125 -40.09375 C 36.710938 -41.5625 34.476562 -42.296875 31.75 -42.296875 C 28.75 -42.296875 26.359375 -41.507812 24.578125 -39.9375 C 22.804688 -38.375 21.851562 -36.328125 21.71875 -33.796875 Z M 21.71875 -33.796875 "/></g></g></g><g fill="#000000" fill-opacity="1"><g transform="translate(369.480449, 177.318092)"><g><path d="M 9.734375 -6.5 C 4.816406 -11.863281 2.359375 -18.4375 2.359375 -26.21875 C 2.359375 -34 4.816406 -40.585938 9.734375 -45.984375 C 14.648438 -51.378906 20.894531 -54.078125 28.46875 -54.078125 C 35.4375 -54.078125 41.175781 -51.894531 45.6875 -47.53125 L 45.6875 -88.078125 L 63.8125 -88.078125 L 63.8125 0 L 45.890625 0 L 45.890625 -5.9375 L 45.6875 -5.9375 C 41.175781 -0.957031 35.4375 1.53125 28.46875 1.53125 C 20.894531 1.53125 14.648438 -1.144531 9.734375 -6.5 Z M 25.140625 -35.125 C 22.785156 -32.800781 21.609375 -29.832031 21.609375 -26.21875 C 21.609375 -22.601562 22.734375 -19.648438 24.984375 -17.359375 C 27.242188 -15.066406 30.21875 -13.921875 33.90625 -13.921875 C 37.457031 -13.921875 40.375 -15.082031 42.65625 -17.40625 C 44.945312 -19.726562 46.09375 -22.664062 46.09375 -26.21875 C 46.09375 -29.832031 44.910156 -32.800781 42.546875 -35.125 C 40.191406 -37.445312 37.3125 -38.609375 33.90625 -38.609375 C 30.414062 -38.609375 27.492188 -37.445312 25.140625 -35.125 Z M 25.140625 -35.125 "/></g></g></g><g fill="#000000" fill-opacity="1"><g transform="translate(439.428131, 177.318092)"><g><path d="M 60.21875 -46.03125 C 65.132812 -40.675781 67.59375 -34.101562 67.59375 -26.3125 C 67.59375 -18.53125 65.132812 -11.941406 60.21875 -6.546875 C 55.300781 -1.160156 49.054688 1.53125 41.484375 1.53125 C 34.515625 1.53125 28.78125 -0.648438 24.28125 -5.015625 L 24.28125 26.625 L 6.140625 26.625 L 6.140625 -52.546875 L 24.0625 -52.546875 L 24.0625 -46.609375 L 24.28125 -46.609375 C 28.78125 -51.585938 34.515625 -54.078125 41.484375 -54.078125 C 49.054688 -54.078125 55.300781 -51.394531 60.21875 -46.03125 Z M 44.8125 -17.40625 C 47.164062 -19.726562 48.34375 -22.695312 48.34375 -26.3125 C 48.34375 -29.9375 47.210938 -32.890625 44.953125 -35.171875 C 42.703125 -37.460938 39.734375 -38.609375 36.046875 -38.609375 C 32.492188 -38.609375 29.570312 -37.445312 27.28125 -35.125 C 25 -32.800781 23.859375 -29.867188 23.859375 -26.328125 C 23.859375 -22.703125 25.035156 -19.726562 27.390625 -17.40625 C 29.753906 -15.082031 32.640625 -13.921875 36.046875 -13.921875 C 39.535156 -13.921875 42.457031 -15.082031 44.8125 -17.40625 Z M 44.8125 -17.40625 "/></g></g></g><g fill="#000000" fill-opacity="1"><g transform="translate(509.375812, 177.318092)"><g><path d="M 2.359375 -42.296875 C 2.359375 -54.523438 6.519531 -64.867188 14.84375 -73.328125 C 23.175781 -81.796875 33.21875 -86.03125 44.96875 -86.03125 C 56.78125 -86.03125 66.816406 -81.8125 75.078125 -73.375 C 83.335938 -64.945312 87.46875 -54.585938 87.46875 -42.296875 C 87.46875 -29.941406 83.40625 -19.546875 75.28125 -11.109375 C 67.15625 -2.679688 57.050781 1.53125 44.96875 1.53125 C 32.601562 1.53125 22.410156 -2.648438 14.390625 -11.015625 C 6.367188 -19.378906 2.359375 -29.804688 2.359375 -42.296875 Z M 23.140625 -42.296875 C 23.140625 -37.859375 23.820312 -33.8125 25.1875 -30.15625 C 26.5625 -26.507812 28.953125 -23.421875 32.359375 -20.890625 C 35.773438 -18.367188 39.976562 -17.109375 44.96875 -17.109375 C 52.132812 -17.109375 57.539062 -19.566406 61.1875 -24.484375 C 64.84375 -29.398438 66.671875 -35.335938 66.671875 -42.296875 C 66.671875 -49.191406 64.8125 -55.113281 61.09375 -60.0625 C 57.375 -65.019531 52 -67.5 44.96875 -67.5 C 38 -67.5 32.617188 -65.019531 28.828125 -60.0625 C 25.035156 -55.113281 23.140625 -49.191406 23.140625 -42.296875 Z M 23.140625 -42.296875 "/></g></g></g><g fill="#000000" fill-opacity="1"><g transform="translate(599.191495, 177.318092)"><g><path d="M 9.21875 -52.546875 L 9.21875 -63.703125 C 9.289062 -71.554688 11.132812 -77.835938 14.75 -82.546875 C 18.363281 -87.265625 23.382812 -89.625 29.8125 -89.625 C 32.539062 -89.625 35.148438 -89.226562 37.640625 -88.4375 C 40.128906 -87.65625 41.921875 -86.851562 43.015625 -86.03125 L 44.765625 -84.90625 L 38.40625 -72.109375 C 36.769531 -73.054688 34.960938 -73.53125 32.984375 -73.53125 C 30.722656 -73.53125 29.21875 -72.765625 28.46875 -71.234375 C 27.71875 -69.703125 27.34375 -67.019531 27.34375 -63.1875 L 27.34375 -52.546875 L 39.4375 -52.546875 L 39.4375 -38.71875 L 27.34375 -38.71875 L 27.34375 0 L 9.21875 0 L 9.21875 -38.71875 L 1.640625 -38.71875 L 1.640625 -52.546875 Z M 9.21875 -52.546875 "/></g></g></g><g fill="#000000" fill-opacity="1"><g transform="translate(637.596139, 177.318092)"><g><path d="M 9.21875 -52.546875 L 9.21875 -63.703125 C 9.289062 -71.554688 11.132812 -77.835938 14.75 -82.546875 C 18.363281 -87.265625 23.382812 -89.625 29.8125 -89.625 C 32.539062 -89.625 35.148438 -89.226562 37.640625 -88.4375 C 40.128906 -87.65625 41.921875 -86.851562 43.015625 -86.03125 L 44.765625 -84.90625 L 38.40625 -72.109375 C 36.769531 -73.054688 34.960938 -73.53125 32.984375 -73.53125 C 30.722656 -73.53125 29.21875 -72.765625 28.46875 -71.234375 C 27.71875 -69.703125 27.34375 -67.019531 27.34375 -63.1875 L 27.34375 -52.546875 L 39.4375 -52.546875 L 39.4375 -38.71875 L 27.34375 -38.71875 L 27.34375 0 L 9.21875 0 L 9.21875 -38.71875 L 1.640625 -38.71875 L 1.640625 -52.546875 Z M 9.21875 -52.546875 "/></g></g></g><g fill="#000000" fill-opacity="1"><g transform="translate(676.000783, 177.318092)"><g><path d="M 7.890625 -81.828125 C 10.003906 -83.953125 12.53125 -85.015625 15.46875 -85.015625 C 18.40625 -85.015625 20.929688 -83.953125 23.046875 -81.828125 C 25.160156 -79.710938 26.21875 -77.1875 26.21875 -74.25 C 26.21875 -71.320312 25.160156 -68.796875 23.046875 -66.671875 C 20.929688 -64.554688 18.40625 -63.5 15.46875 -63.5 C 12.53125 -63.5 10.003906 -64.554688 7.890625 -66.671875 C 5.773438 -68.796875 4.71875 -71.320312 4.71875 -74.25 C 4.71875 -77.1875 5.773438 -79.710938 7.890625 -81.828125 Z M 6.140625 -52.546875 L 6.140625 0 L 24.28125 0 L 24.28125 -52.546875 Z M 6.140625 -52.546875 "/></g></g></g><g fill="#000000" fill-opacity="1"><g transform="translate(706.929322, 177.318092)"><g><path d="M 34.109375 -39.234375 C 30.691406 -39.234375 27.753906 -37.96875 25.296875 -35.4375 C 22.835938 -32.90625 21.609375 -29.867188 21.609375 -26.328125 C 21.609375 -22.703125 22.835938 -19.625 25.296875 -17.09375 C 27.753906 -14.570312 30.691406 -13.3125 34.109375 -13.3125 C 35.742188 -13.3125 37.296875 -13.515625 38.765625 -13.921875 C 40.234375 -14.335938 41.3125 -14.75 42 -15.15625 L 42.921875 -15.765625 L 49.0625 -3.171875 C 48.582031 -2.828125 47.914062 -2.398438 47.0625 -1.890625 C 46.207031 -1.378906 44.257812 -0.679688 41.21875 0.203125 C 38.1875 1.085938 34.925781 1.53125 31.4375 1.53125 C 23.726562 1.53125 16.953125 -1.179688 11.109375 -6.609375 C 5.273438 -12.035156 2.359375 -18.539062 2.359375 -26.125 C 2.359375 -33.769531 5.273438 -40.335938 11.109375 -45.828125 C 16.953125 -51.328125 23.726562 -54.078125 31.4375 -54.078125 C 34.925781 -54.078125 38.132812 -53.664062 41.0625 -52.84375 C 44 -52.03125 46.082031 -51.210938 47.3125 -50.390625 L 49.0625 -49.15625 L 42.921875 -36.765625 C 40.660156 -38.410156 37.722656 -39.234375 34.109375 -39.234375 Z M 34.109375 -39.234375 "/></g></g></g><g fill="#000000" fill-opacity="1"><g transform="translate(757.213819, 177.318092)"><g><path d="M 59.296875 -23.765625 L 21.203125 -23.765625 C 21.203125 -20.078125 22.394531 -17.34375 24.78125 -15.5625 C 27.175781 -13.789062 29.769531 -12.90625 32.5625 -12.90625 C 35.5 -12.90625 37.820312 -13.296875 39.53125 -14.078125 C 41.238281 -14.867188 43.1875 -16.425781 45.375 -18.75 L 58.484375 -12.1875 C 53.023438 -3.039062 43.941406 1.53125 31.234375 1.53125 C 23.316406 1.53125 16.523438 -1.179688 10.859375 -6.609375 C 5.191406 -12.035156 2.359375 -18.570312 2.359375 -26.21875 C 2.359375 -33.863281 5.191406 -40.414062 10.859375 -45.875 C 16.523438 -51.34375 23.316406 -54.078125 31.234375 -54.078125 C 39.566406 -54.078125 46.34375 -51.671875 51.5625 -46.859375 C 56.789062 -42.046875 59.40625 -35.164062 59.40625 -26.21875 C 59.40625 -24.988281 59.367188 -24.171875 59.296875 -23.765625 Z M 21.71875 -33.796875 L 41.6875 -33.796875 C 41.28125 -36.523438 40.203125 -38.625 38.453125 -40.09375 C 36.710938 -41.5625 34.476562 -42.296875 31.75 -42.296875 C 28.75 -42.296875 26.359375 -41.507812 24.578125 -39.9375 C 22.804688 -38.375 21.851562 -36.328125 21.71875 -33.796875 Z M 21.71875 -33.796875 "/></g></g></g><g fill="#000000" fill-opacity="1"><g transform="translate(818.968533, 177.318092)"><g><path d="M 6.140625 0 L 6.140625 -52.546875 L 24.28125 -52.546875 L 24.28125 -44.96875 L 24.484375 -44.96875 C 24.617188 -45.238281 24.835938 -45.578125 25.140625 -45.984375 C 25.453125 -46.398438 26.117188 -47.117188 27.140625 -48.140625 C 28.160156 -49.160156 29.25 -50.078125 30.40625 -50.890625 C 31.570312 -51.710938 33.078125 -52.445312 34.921875 -53.09375 C 36.765625 -53.75 38.644531 -54.078125 40.5625 -54.078125 C 42.539062 -54.078125 44.484375 -53.800781 46.390625 -53.25 C 48.304688 -52.707031 49.707031 -52.164062 50.59375 -51.625 L 52.03125 -50.796875 L 44.453125 -35.4375 C 42.203125 -37.351562 39.0625 -38.3125 35.03125 -38.3125 C 32.84375 -38.3125 30.960938 -37.832031 29.390625 -36.875 C 27.828125 -35.914062 26.71875 -34.753906 26.0625 -33.390625 C 25.414062 -32.023438 24.957031 -30.863281 24.6875 -29.90625 C 24.414062 -28.945312 24.28125 -28.195312 24.28125 -27.65625 L 24.28125 0 Z M 6.140625 0 "/></g></g></g></svg>